<?xml version="1.0" encoding="utf-8"?>
<!-- Generator: Adobe Illustrator 23.0.3, SVG Export Plug-In . SVG Version: 6.00 Build 0)  -->
<svg version="1.1" id="Layer_1" xmlns="http://www.w3.org/2000/svg" xmlns:xlink="http://www.w3.org/1999/xlink" x="0px" y="0px"
	 viewBox="0 0 70 68.7" style="enable-background:new 0 0 70 68.7;" xml:space="preserve">
<style type="text/css">
	.st0{fill:#FFFFFF;}
</style>
<title>Essential Icons</title>
<path class="st0" d="M65,14H5c-1.7,0-3-1.3-3-3s1.3-3,3-3h60c1.7,0,3,1.3,3,3S66.7,14,65,14z"/>
<path class="st0" d="M65,39H5c-1.7,0-3-1.3-3-3s1.3-3,3-3h60c1.7,0,3,1.3,3,3S66.7,39,65,39z"/>
<path class="st0" d="M65,64H5c-1.7,0-3-1.3-3-3s1.3-3,3-3h60c1.7,0,3,1.3,3,3S66.7,64,65,64z"/>
</svg>
