<?xml version="1.0" encoding="utf-8"?>
<!-- Generator: Adobe Illustrator 22.0.0, SVG Export Plug-In . SVG Version: 6.00 Build 0)  -->
<svg version="1.1" id="Layer_1" xmlns="http://www.w3.org/2000/svg" xmlns:xlink="http://www.w3.org/1999/xlink" x="0px" y="0px"
	 viewBox="0 0 142.3 144.3" style="enable-background:new 0 0 142.3 144.3;" xml:space="preserve">
<style type="text/css">
	.st0{fill:#1CA2DB;}
</style>
<path class="st0" d="M0.5,81.8c2.2-3.7,5-6.6,9.9-5.6c4.2,0.8,6.6,3.9,6.7,8.3c0.1,5.2,0.1,10.5,0,15.7c0,4.9-2.1,7.8-6.3,8.9
	c-3.9,1-7-0.6-9.5-4.7c-0.2-0.3-0.5-0.5-0.7-0.8C0.5,96.3,0.5,89.1,0.5,81.8z"/>
<path class="st0" d="M75.5,142.9c0-23.1,0-45.5,0-67.8c0-1.6,0.5-2.5,1.9-3.3c16.3-8.9,33.8-12.5,52.2-12.4c3.7,0,5.8,3.9,4.5,7.4
	c-0.4,1.1-1.4,0.9-2.1,1.1c-10.2,2.7-14.4,8.1-14.4,18.8c0,4.9-0.1,9.7,0,14.6c0.2,7.6,5.3,14.2,12.5,15.7c3,0.6,4.6,1.6,4,5
	c-0.6,3.4-2.7,4.1-5.6,4.1c-12.9,0.1-25.2,3-37,8.2C86.2,136.7,81.1,139.6,75.5,142.9z"/>
<path class="st0" d="M67.3,142.9c-9-5.6-17.8-10.1-27.2-12.9c-8.4-2.5-17-3.9-25.8-4c-4.1,0-5.3-1.5-5.6-5.3
	c-0.1-2.2,0.6-2.9,2.8-3.3c9-1.9,13.8-8,13.9-17.3c0-5.2,0.1-10.5,0-15.7c-0.1-8.1-5.1-14.4-13-16.1c-2.8-0.6-4.1-1.5-3.6-4.5
	c0.5-3,2-4.4,5-4.4c10.5,0,20.9,1.2,31.1,4c7,1.9,13.7,4.7,20.1,8.1c1.3,0.7,2.5,1.4,2.5,3.3C67.2,97.2,67.3,119.7,67.3,142.9z"/>
<path class="st0" d="M142.4,92.7c0,2.9,0.1,5.7,0,8.6c-0.2,4.6-3.7,8-8.1,8.1c-4.2,0.1-8.1-3.2-8.3-7.6c-0.3-6.1-0.3-12.2,0-18.3
	c0.2-4.3,4.2-7.6,8.3-7.6c4.4,0.1,8,3.5,8.1,8.1C142.5,86.9,142.4,89.8,142.4,92.7z"/>
<path class="st0" d="M76.9,51c1.8-0.9,2.9-1.5,4-2.1c0,0,0,0,0,0c14.6-5.1,20.1-24.2,10.9-37.4C88,5.9,82.4,3,76.2,0.8c-3,0-6,0-9,0
	c-0.7,0.9-1.8,0.7-2.8,1C46.8,7.2,40.7,29,52.9,42.8c3.3,3.8,7.9,5.7,12,8.2c-6.2-0.2-12.1,0.9-18.2,4.1c8.6,2.6,16.3,5.6,23.6,9.7
	c0.7,0.4,1.4,0.6,2.1,0.1c7.3-4.2,15.1-7.2,23.7-9.9C89.9,51.8,83.8,50.9,76.9,51z"/>
</svg>
